<?xml version="1.0" ?><!DOCTYPE svg  PUBLIC '-//W3C//DTD SVG 1.1//EN'  'http://www.w3.org/Graphics/SVG/1.1/DTD/svg11.dtd'><svg enable-background="new 0 0 512 512" id="Layer_1" version="1.1" viewBox="0 0 512 512" xml:space="preserve" xmlns="http://www.w3.org/2000/svg" xmlns:xlink="http://www.w3.org/1999/xlink"><path d="M374,511.7H138c-76.2,0-138-61.8-138-138v-236c0-76.2,61.8-138,138-138h236c76.2,0,138,61.8,138,138v236  C512,449.9,450.2,511.7,374,511.7z" fill="#171515"/><g><path d="M364.9,198.6c0.2-11.8-2.4-23.8-4.5-35.6c-0.7-4.1-2.2-8-3.6-11.8c-1.1-2.9-4.3-4.7-7.3-4.1   c-1.9,0.4-3.7,0.8-5.3,1.4c-17.5,5.8-33.8,14.2-49.4,24c-2.1,1.3-5.1,1.8-7.7,1.6c-6.1-0.4-12-1.9-18.1-2.2   c-15-0.7-29.9-0.3-44.8,2.3c-2.1,0.4-4.8,0-6.5-1.1c-17-11-34.7-20.4-54.6-25.7c-3-0.8-6.1-0.4-6.8,0.8c-0.5,0.7-0.9,1.5-1.1,2.3   c-2.2,7.6-4.7,15.1-6,22.8c-1.5,9.2-2.9,18.7-2.2,27.9c0.4,5.8-1.2,9.3-4.3,13.4c-10.6,13.6-15.4,29.3-15.7,46.5   c-0.3,14.7,1.7,29,6.2,43c6.8,21.5,20.1,37.7,40,48.2c16.4,8.6,34.2,12,52.5,12.6c16.5,0.6,32.9,0.1,49.4,0.2   c16.5,0.1,32.8-1.4,48.6-6.5c15.8-5.2,29.5-13.5,40.1-26.5c15.3-18.9,20.1-41.1,21.1-64.7c0.8-18-2.9-34.9-13.5-49.7   C367.2,211.6,364.8,206.5,364.9,198.6z M333.1,336.5c-7.1,6.1-15.7,9-24.6,11.1c-17.4,4.2-35.1,5.2-52.9,4.4   c-17.6,0.8-34.9-0.3-52-4.4c-12.6-3-24.1-8-32.1-18.8c-12.8-17.2-16-50,5.1-67.9c5.4-4.6,11.4-7.5,18.5-7.9   c7.8-0.5,15.6-1.5,23.5-1.4c19.7,0.2,39.4,1.2,59.1,1.4c9,0.1,18.1-2,27-1.5c8.1,0.5,16.7,2,24,5.3c12.3,5.4,18.9,16.5,20.9,29.4   C352.6,305.6,348.6,323.1,333.1,336.5z" fill="#FFFFFF"/><ellipse cx="301" cy="299" fill="#FFFFFF" rx="18.8" ry="25.1"/><ellipse cx="211.3" cy="299" fill="#FFFFFF" rx="18.8" ry="25.1"/></g></svg>